<?xml version="1.0" standalone="no"?>
<!DOCTYPE svg PUBLIC "-//W3C//DTD SVG 20010904//EN"
 "http://www.w3.org/TR/2001/REC-SVG-20010904/DTD/svg10.dtd">
<svg version="1.0" xmlns="http://www.w3.org/2000/svg"
 width="1024.000000pt" height="1024.000000pt" viewBox="0 0 1024.000000 1024.000000"
 preserveAspectRatio="xMidYMid meet">

<g transform="translate(0.000000,1024.000000) scale(0.100000,-0.100000)"
fill="#000000" stroke="none">
<path d="M4830 8719 c-284 -25 -625 -100 -882 -193 -123 -45 -427 -182 -478
-216 -14 -9 -56 -34 -95 -55 -392 -215 -830 -621 -1153 -1072 -214 -297 -388
-664 -495 -1043 -81 -286 -149 -884 -105 -928 9 -9 93 -12 315 -12 l303 0 0
-70 0 -70 -299 0 c-269 0 -301 -2 -317 -17 -30 -30 -9 -294 51 -643 35 -202
125 -502 212 -710 40 -94 188 -386 207 -410 7 -8 28 -42 46 -75 34 -61 122
-189 209 -305 149 -197 429 -480 616 -623 28 -20 84 -63 125 -94 220 -166 614
-370 900 -465 266 -89 386 -118 635 -155 175 -26 214 -28 485 -28 251 0 320 4
460 23 312 43 566 112 870 237 123 50 326 152 367 185 14 11 31 20 37 20 6 0
40 21 76 46 36 25 91 63 123 84 223 148 577 468 733 663 32 39 74 92 94 117
38 48 181 256 215 313 125 212 141 241 160 292 10 28 28 68 40 90 13 22 26 51
30 65 4 14 22 61 40 105 84 204 184 588 215 825 23 179 36 395 26 434 l-6 26
-310 0 -310 0 0 70 0 70 305 0 305 0 14 23 c32 50 -17 547 -79 799 -37 152
-119 407 -152 473 -11 22 -23 52 -27 67 -10 44 -160 341 -218 433 -183 291
-358 514 -565 720 -118 118 -268 249 -346 302 -18 12 -54 39 -82 61 -27 21
-83 60 -122 85 -493 320 -1067 515 -1638 557 -161 11 -397 11 -535 -1z m677
-244 c515 -65 1054 -280 1478 -588 255 -185 512 -433 698 -672 227 -292 444
-703 540 -1025 73 -242 122 -492 134 -677 l6 -103 -199 0 -200 0 -23 153 c-34
223 -121 546 -196 722 -31 74 -153 312 -196 381 -224 367 -545 695 -926 945
-117 77 -374 206 -518 262 -310 119 -644 179 -1000 179 -366 0 -667 -59 -1020
-199 -209 -83 -441 -206 -504 -268 l-24 -23 44 -12 c24 -6 84 -25 133 -41 l89
-30 111 54 c385 187 690 271 1046 286 364 15 680 -34 1006 -154 199 -74 579
-274 571 -300 -2 -5 -27 -26 -55 -45 l-51 -35 -1 -960 c0 -528 0 -1425 0
-1993 0 -675 -3 -1033 -10 -1030 -8 3 -238 280 -554 667 -88 108 -245 301
-650 796 -125 154 -397 483 -651 790 -110 132 -288 350 -395 484 l-195 243 -3
-881 -2 -881 -110 0 -110 0 -1 875 c-1 481 -1 891 -1 910 0 19 0 150 1 290 l1
256 142 -173 c78 -95 318 -384 533 -643 215 -258 440 -531 500 -605 60 -74
142 -173 181 -220 40 -47 181 -218 314 -380 133 -162 301 -365 373 -450 73
-85 193 -228 267 -318 l135 -163 3 1527 2 1527 -65 72 c-111 124 -238 260
-252 268 -10 6 -11 -235 -7 -1255 l5 -1263 -27 25 c-14 14 -65 72 -112 130
-160 196 -266 324 -432 525 -91 110 -240 290 -330 400 -90 110 -250 304 -355
430 -105 127 -280 338 -390 470 -350 422 -427 489 -668 574 -49 17 -97 31
-108 31 -19 0 -20 -18 -18 -1417 l2 -1418 -452 -3 -451 -2 -9 23 c-5 13 -20
82 -33 153 -21 117 -23 157 -23 439 0 279 3 322 23 435 73 400 169 665 351
970 95 160 145 230 254 352 l87 99 0 155 c0 101 -4 154 -10 152 -19 -6 -232
-222 -290 -293 -366 -449 -568 -931 -656 -1562 l-5 -33 -199 0 -200 0 0 33 c0
144 60 463 133 707 92 309 273 672 485 970 145 204 417 493 614 651 119 95
345 246 493 328 394 218 828 350 1282 391 137 12 504 4 650 -15z m1330 -1324
c159 -141 315 -321 443 -512 319 -473 482 -1087 442 -1666 -10 -146 -41 -382
-58 -436 -5 -16 -34 -17 -461 -15 l-455 3 -5 1348 c-4 974 -2 1347 6 1347 6 0
46 -31 88 -69z m-2386 -1921 c142 -176 339 -416 504 -614 55 -67 139 -168 185
-226 93 -116 522 -641 622 -761 35 -42 119 -145 188 -230 339 -417 441 -506
693 -609 l92 -37 5 806 5 806 438 3 c346 2 437 0 437 -10 0 -7 -12 -47 -26
-90 l-25 -77 -210 -3 c-208 -3 -211 -3 -230 -27 -23 -28 -24 -69 -3 -99 15
-21 20 -22 195 -22 98 0 179 -2 179 -5 0 -8 -107 -221 -137 -274 -82 -142
-219 -329 -336 -461 l-76 -84 -3 -162 c-2 -131 0 -161 10 -155 7 4 67 61 134
127 255 250 422 479 568 779 133 272 231 586 282 904 l23 141 197 0 c109 0
198 -3 198 -7 0 -34 -22 -239 -31 -283 -90 -470 -181 -736 -381 -1102 -169
-312 -334 -527 -604 -789 -513 -497 -1090 -783 -1794 -890 -120 -18 -190 -22
-405 -23 -276 -1 -377 7 -600 50 -312 61 -593 157 -875 300 -383 194 -648 391
-911 676 -350 380 -607 820 -762 1303 -59 185 -130 542 -139 700 l-3 60 197 3
197 2 5 -32 c3 -18 8 -55 11 -83 23 -188 126 -552 217 -764 98 -231 266 -516
406 -691 93 -116 306 -332 422 -427 434 -357 969 -584 1512 -643 147 -15 467
-13 610 6 279 36 471 84 715 180 120 47 326 148 342 168 6 7 -31 30 -114 70
l-123 58 -133 -55 c-308 -128 -548 -185 -869 -207 -516 -34 -1071 119 -1547
426 l-85 55 68 47 69 47 6 155 c4 85 7 392 8 683 l1 527 110 0 110 0 0 -538 0
-538 28 -36 c39 -52 275 -308 279 -304 2 2 4 320 6 707 l2 704 105 3 c91 2
108 6 127 24 15 14 23 33 23 53 0 20 -8 39 -23 53 -19 18 -36 22 -127 24
l-105 3 -3 438 c-1 255 2 437 7 435 5 -1 69 -77 142 -168z m-990 -1485 c0
-344 1 -641 2 -660 0 -19 -2 -38 -5 -41 -3 -3 -62 49 -131 115 -180 174 -325
358 -452 572 -80 135 -155 278 -155 295 0 11 33 14 173 14 161 0 175 1 195 20
29 27 29 80 1 106 -19 17 -43 20 -233 24 l-211 5 -22 65 c-12 36 -22 75 -22
88 l-1 22 430 0 430 0 1 -625z"/>
<path d="M4855 8349 c-259 -23 -556 -91 -798 -183 -223 -85 -306 -126 -587
-288 -77 -44 -270 -186 -362 -264 -243 -210 -404 -385 -562 -614 -188 -270
-316 -529 -415 -833 -56 -175 -61 -212 -30 -251 44 -56 119 -14 134 76 10 61
94 294 152 423 162 362 472 782 751 1018 231 196 446 339 677 452 316 154 625
248 960 291 179 23 507 23 680 0 548 -74 1067 -293 1485 -626 132 -106 425
-398 512 -510 88 -116 195 -276 260 -390 77 -136 181 -370 217 -486 16 -54 40
-133 53 -174 17 -57 29 -78 49 -89 39 -22 77 -7 95 35 13 32 13 44 0 103 -40
174 -158 470 -268 666 -433 778 -1166 1350 -1996 1559 -344 86 -670 114 -1007
85z"/>
<path d="M5013 7492 c-136 -49 -211 -161 -201 -304 14 -228 260 -353 461 -234
76 44 139 176 131 276 -15 192 -213 325 -391 262z m172 -193 c77 -68 68 -161
-22 -201 -62 -27 -108 -20 -150 27 -27 29 -33 43 -33 81 0 41 5 51 39 85 34
34 45 39 84 39 37 0 53 -6 82 -31z"/>
<path d="M2053 5720 c-68 -28 -51 -131 25 -146 24 -5 36 -1 56 19 41 41 34 97
-15 122 -32 17 -35 17 -66 5z"/>
<path d="M8066 5698 c-47 -67 22 -151 99 -122 44 17 52 101 12 129 -33 23 -93
19 -111 -7z"/>
<path d="M2872 5354 c-203 -101 -160 -415 64 -465 47 -11 63 -10 110 5 185 58
242 280 106 415 -77 76 -183 93 -280 45z m166 -167 c31 -28 30 -80 -3 -112
-30 -31 -66 -32 -101 -2 -40 34 -37 81 5 119 36 32 59 31 99 -5z"/>
<path d="M7141 5366 c-82 -29 -147 -114 -158 -206 -17 -148 120 -292 265 -277
209 22 295 286 140 434 -18 18 -50 39 -70 47 -44 19 -129 20 -177 2z m137
-178 c37 -40 38 -73 4 -108 -37 -37 -74 -39 -107 -5 -31 30 -32 73 -4 109 27
34 77 36 107 4z"/>
<path d="M2047 4678 c-26 -21 -38 -63 -26 -98 29 -81 139 -60 139 25 0 63 -68
107 -113 73z"/>
<path d="M8076 4667 c-18 -18 -26 -37 -26 -62 0 -97 131 -101 146 -5 7 44 -17
77 -63 86 -26 5 -37 1 -57 -19z"/>
<path d="M2103 4344 c-22 -22 -25 -31 -19 -71 3 -25 24 -100 46 -166 244 -728
706 -1330 1322 -1723 139 -89 444 -239 603 -296 622 -226 1227 -253 1875 -83
321 85 705 268 965 460 299 222 613 545 787 810 136 208 251 430 335 645 65
167 114 322 115 368 2 63 -50 100 -101 71 -29 -16 -42 -48 -96 -224 -58 -188
-158 -406 -288 -625 -259 -436 -718 -878 -1147 -1104 -309 -162 -643 -271
-995 -323 -171 -25 -632 -26 -792 0 -126 20 -389 83 -507 122 -327 107 -709
318 -971 537 -251 209 -515 514 -665 768 -140 237 -273 548 -330 769 -22 85
-86 116 -137 65z"/>
<path d="M4983 3361 c-54 -25 -112 -84 -143 -146 -35 -70 -36 -199 -2 -263 37
-69 87 -117 153 -147 54 -24 71 -27 134 -23 121 8 201 64 254 178 56 121 15
280 -92 361 -27 20 -66 41 -87 48 -59 18 -169 13 -217 -8z m196 -178 c14 -11
34 -36 45 -57 16 -32 17 -44 7 -77 -32 -106 -189 -122 -236 -23 -19 40 -19 65
-1 109 30 71 121 94 185 48z"/>
</g>
</svg>
